# Blender 4.0.2
# www.blender.org
o Col
v -2.000000 0.000000 2.000000
v 2.000000 0.000000 2.000000
v -2.000000 0.000000 -2.000000
v 2.000000 0.000000 -2.000000
v -1.000000 0.000000 -2.000000
v -1.000000 0.000000 2.000000
v -1.000000 0.000000 0.000000
v 1.000000 0.000000 2.000000
v 1.000000 0.000000 -2.000000
v 0.000000 0.505585 0.000000
v 0.000000 0.505585 -2.000000
v -1.000000 0.505585 -2.000000
v -1.000000 0.505585 0.000000
v 0.000000 0.276769 1.000000
v 2.000000 0.000000 -1.000000
v 0.000000 0.505585 -1.000000
v 0.999262 0.276787 1.001188
v 1.000000 0.000000 0.000000
v 0.999099 0.505607 0.001450
v 1.000000 0.000000 -1.000000
v 1.000000 0.505585 -1.000000
v -2.000000 1.405778 2.000000
v 2.000000 1.405778 2.000000
v -2.000000 1.405778 -2.000000
v 2.000000 1.405778 -2.000000
v 1.000000 1.405778 -2.000000
v -1.000000 0.276769 1.000000
v -1.000000 0.000000 -1.000000
v -1.000000 0.505585 -1.000000
v 1.500000 0.000000 -2.000000
v 1.500000 0.000000 -1.000000
v 2.000000 0.000000 -1.500000
v 0.000000 0.505585 -1.500000
v -1.000000 0.000000 -1.500000
v 1.000000 0.000000 -1.500000
v -1.000000 0.505585 -1.500000
v 1.500000 0.000000 -1.500000
v 1.500004 0.000000 2.000000
v 1.500001 0.000000 -0.000030
v 2.000000 0.000000 -0.000014
v 1.000000 0.000000 1.002123
v 1.500003 0.000000 1.002109
v 2.000000 0.000000 1.002097
v -1.000000 0.000000 0.999990
v 1.000000 0.276769 2.000000
v -1.000000 0.276769 2.000000
v 0.000000 0.276769 2.000000
v -1.000000 1.405778 2.000000
v 0.000013 1.405778 2.000000
v -2.000000 0.000000 0.015004
v -2.000000 1.405778 0.015004
v -2.000000 0.000000 -0.992498
v -2.000000 1.405778 -0.992498
v -2.000000 0.000000 1.007502
v -2.000000 1.405778 1.007502
v -1.500000 0.000000 2.000000
v -1.500000 0.000000 1.003746
v -1.500000 0.000000 -2.000000
v -1.500028 0.000000 -0.996249
v -2.000000 0.702889 2.000000
v -2.000000 0.702889 -2.000000
v -2.000000 0.702889 0.015004
v -2.000000 0.702889 -0.992498
v -2.000000 0.702889 1.007502
v -1.000029 1.405778 -2.000000
v 2.000000 1.405778 0.000016
v 2.000000 0.702908 -2.000000
v -1.000006 0.702919 -2.000000
v 1.000000 0.702890 -2.000000
v 0.000005 0.702877 2.000000
v 2.000000 0.702927 0.000001
v 2.000000 0.702932 2.000000
v -1.000000 0.702890 2.000000
v 1.500051 0.702918 2.000000
v 1.500096 1.405778 2.000000
v -1.500000 0.702904 -2.000000
v -1.499990 1.405778 -2.000000
v -1.499986 0.702889 2.000000
v -1.499986 1.405778 2.000000
v -2.000000 0.000000 1.503751
v -2.000000 1.405778 1.503751
v -1.000000 0.000000 1.499995
v 1.500003 0.000000 1.501055
v 1.000000 0.000000 1.501062
v 2.000000 0.000000 1.501048
v -1.000000 0.276769 1.500000
v 0.999631 0.276778 1.500594
v 0.000000 0.276769 1.500000
v -1.500000 0.000000 1.501873
v -2.000000 0.702889 1.503751
v 0.999981 0.702904 2.000000
v 0.999990 1.405778 2.000000
vn -0.0000 1.0000 -0.0000
vn -1.0000 -0.0000 -0.0000
vn 1.0000 0.0018 0.0009
vn -0.0000 -0.0000 -1.0000
vn -0.0003 0.9748 0.2231
vn 1.0000 0.0013 -0.0007
vn 1.0000 -0.0000 -0.0000
vn -0.0000 -0.0000 1.0000
vn 0.4512 0.8924 -0.0000
vn -0.0000 0.9748 0.2231
vn 1.0000 0.0018 0.0002
vn 1.0000 0.0027 -0.0007
vn 1.0000 0.0027 -0.0000
vn 1.0000 0.0013 -0.0000
s 0
f 32//1 30//1 37//1
f 33//1 12//1 36//1
f 10//1 29//1 13//1
f 28//2 36//2 34//2
f 18//3 21//3 19//3
f 10//1 21//1 16//1
f 16//4 21//4 20//4
f 19//5 14//5 17//5
f 72//2 40//2 43//2
f 45//6 84//6 87//6
f 85//1 42//1 83//1
f 81//7 60//7 90//7
f 12//8 76//8 58//8
f 16//9 35//9 33//9
f 29//2 7//2 13//2
f 13//10 14//10 10//10
f 53//7 62//7 63//7
f 37//1 9//1 35//1
f 31//1 35//1 20//1
f 33//9 9//9 11//9
f 34//2 12//2 5//2
f 16//1 36//1 29//1
f 15//1 37//1 31//1
f 83//1 41//1 84//1
f 39//1 20//1 18//1
f 39//1 15//1 31//1
f 17//11 18//11 19//11
f 42//1 18//1 41//1
f 42//1 40//1 39//1
f 24//7 63//7 61//7
f 56//4 73//4 46//4
f 7//2 27//2 13//2
f 88//1 27//1 86//1
f 49//4 73//4 48//4
f 88//1 17//1 14//1
f 2//4 74//4 72//4
f 6//2 86//2 82//2
f 82//1 57//1 89//1
f 51//7 64//7 62//7
f 89//1 54//1 80//1
f 57//1 52//1 50//1
f 62//7 54//7 50//7
f 59//1 3//1 52//1
f 57//1 7//1 28//1
f 59//1 34//1 5//1
f 61//7 52//7 3//7
f 63//7 50//7 52//7
f 90//7 1//7 80//7
f 68//8 26//8 65//8
f 26//8 67//8 25//8
f 71//2 4//2 32//2
f 69//8 30//8 4//8
f 69//8 12//8 11//8
f 76//8 24//8 61//8
f 70//4 46//4 73//4
f 73//4 79//4 48//4
f 71//2 25//2 67//2
f 72//4 75//4 23//4
f 72//2 66//2 71//2
f 64//7 80//7 54//7
f 38//4 45//4 91//4
f 74//4 92//4 75//4
f 58//8 61//8 3//8
f 77//8 68//8 65//8
f 78//4 22//4 79//4
f 56//4 60//4 78//4
f 56//1 80//1 1//1
f 6//1 89//1 56//1
f 82//2 27//2 44//2
f 47//1 87//1 88//1
f 47//1 86//1 46//1
f 38//1 84//1 8//1
f 55//7 90//7 64//7
f 2//1 83//1 38//1
f 87//12 41//12 17//12
f 91//4 47//4 70//4
f 91//4 49//4 92//4
f 32//1 4//1 30//1
f 33//1 11//1 12//1
f 10//1 16//1 29//1
f 28//2 29//2 36//2
f 18//7 20//7 21//7
f 10//1 19//1 21//1
f 19//5 10//5 14//5
f 85//2 2//2 72//2
f 72//2 71//2 40//2
f 43//2 85//2 72//2
f 45//7 8//7 84//7
f 85//1 43//1 42//1
f 81//7 22//7 60//7
f 58//8 5//8 12//8
f 12//8 68//8 76//8
f 16//9 20//9 35//9
f 29//2 28//2 7//2
f 13//10 27//10 14//10
f 53//7 51//7 62//7
f 37//1 30//1 9//1
f 31//1 37//1 35//1
f 33//9 35//9 9//9
f 34//2 36//2 12//2
f 16//1 33//1 36//1
f 15//1 32//1 37//1
f 83//1 42//1 41//1
f 39//1 31//1 20//1
f 39//1 40//1 15//1
f 17//13 41//13 18//13
f 42//1 39//1 18//1
f 42//1 43//1 40//1
f 24//7 53//7 63//7
f 46//4 6//4 56//4
f 56//4 78//4 73//4
f 7//2 44//2 27//2
f 88//1 14//1 27//1
f 49//4 70//4 73//4
f 88//1 87//1 17//1
f 2//4 38//4 74//4
f 6//2 46//2 86//2
f 82//1 44//1 57//1
f 51//7 55//7 64//7
f 89//1 57//1 54//1
f 50//1 54//1 57//1
f 57//1 59//1 52//1
f 62//7 64//7 54//7
f 59//1 58//1 3//1
f 28//1 59//1 57//1
f 57//1 44//1 7//1
f 5//1 58//1 59//1
f 59//1 28//1 34//1
f 61//7 63//7 52//7
f 63//7 62//7 50//7
f 90//7 60//7 1//7
f 68//8 69//8 26//8
f 26//8 69//8 67//8
f 15//2 40//2 71//2
f 71//2 67//2 4//2
f 32//2 15//2 71//2
f 4//8 67//8 69//8
f 69//8 9//8 30//8
f 69//8 68//8 12//8
f 11//8 9//8 69//8
f 76//8 77//8 24//8
f 70//4 47//4 46//4
f 73//4 78//4 79//4
f 71//2 66//2 25//2
f 72//4 74//4 75//4
f 72//2 23//2 66//2
f 64//7 90//7 80//7
f 91//4 74//4 38//4
f 38//4 8//4 45//4
f 74//4 91//4 92//4
f 58//8 76//8 61//8
f 77//8 76//8 68//8
f 78//4 60//4 22//4
f 56//4 1//4 60//4
f 56//1 89//1 80//1
f 6//1 82//1 89//1
f 82//2 86//2 27//2
f 47//1 45//1 87//1
f 47//1 88//1 86//1
f 38//1 83//1 84//1
f 55//7 81//7 90//7
f 2//1 85//1 83//1
f 87//14 84//14 41//14
f 91//4 45//4 47//4
f 91//4 70//4 49//4
